<?xml version="1.0" encoding="utf-8"?>
<svg width="513.70496px" height="81.003876px" viewBox="0 0 513.70496 81.003876" version="1.1" xmlns:xlink="http://www.w3.org/1999/xlink" xmlns="http://www.w3.org/2000/svg">
  <g id="Group-6">
    <g id="Group-4">
      <path d="M74.1666 40.1229L47.5277 40.1229L61.1373 64.4398L0 64.4398L0 74.1666L74.1666 74.1666L74.1666 40.1229Z" id="Rectangle-2-Copy-2-Subtract" fill="#29C2E1" fill-rule="evenodd" stroke="none" />
      <path d="M74.1666 0L0 0L0 34.0437L25.9584 34.0437L13.0293 10.9426L74.1666 10.9426L74.1666 0Z" id="Rectangle-2-Copy-3-Subtract" fill="#FFFFFF" fill-rule="evenodd" stroke="none" />
    </g>
    <path d="M262.744 42.9162C262.744 36.4781 264.237 31.3084 267.224 27.4069C270.212 23.5054 274.216 21.5547 279.238 21.5547C283.667 21.5547 287.247 23.0998 289.977 26.1901L289.977 4.78993L299.363 4.78993L299.363 64.1232L290.865 64.1232L290.401 59.7969C287.595 63.1962 283.848 64.8958 279.161 64.8958C274.268 64.8958 270.308 62.9258 267.282 58.9857C264.256 55.0456 262.744 49.6891 262.744 42.9162L262.744 42.9162ZM140.446 49.6376C140.446 47.1653 139.577 45.2597 137.838 43.9206C136.1 42.5814 132.965 41.2294 128.432 39.8646C123.9 38.4997 120.295 36.9803 117.616 35.3064C112.492 32.0874 109.929 27.8897 109.929 22.7135C109.929 18.1811 111.777 14.447 115.473 11.5113C119.168 8.57552 123.964 7.10764 129.862 7.10764C133.776 7.10764 137.265 7.8287 140.33 9.27083C143.394 10.713 145.802 12.7667 147.553 15.4321C149.305 18.0974 150.18 21.0525 150.18 24.2973L140.446 24.2973C140.446 21.3615 139.525 19.0631 137.684 17.4021C135.843 15.7411 133.209 14.9106 129.784 14.9106C126.591 14.9106 124.112 15.593 122.348 16.9579C120.584 18.3228 119.702 20.2284 119.702 22.6749C119.702 24.7351 120.655 26.4541 122.561 27.8318C124.467 29.2096 127.608 30.5487 131.986 31.8492C136.364 33.1497 139.879 34.6304 142.532 36.2914C145.184 37.9525 147.129 39.8581 148.365 42.0084C149.601 44.1588 150.219 46.6761 150.219 49.5603C150.219 54.2472 148.423 57.9749 144.83 60.7433C141.238 63.5116 136.364 64.8958 130.209 64.8958C126.14 64.8958 122.4 64.1426 118.988 62.636C115.576 61.1295 112.923 59.05 111.03 56.3975C109.137 53.7451 108.191 50.6548 108.191 47.1267L117.964 47.1267C117.964 50.32 119.02 52.7922 121.132 54.5434C123.243 56.2945 126.269 57.1701 130.209 57.1701C133.609 57.1701 136.165 56.4812 137.877 55.1035C139.59 53.7257 140.446 51.9038 140.446 49.6376L140.446 49.6376ZM168.413 12.168L168.413 22.3272L175.791 22.3272L175.791 29.2804L168.413 29.2804L168.413 52.612C168.413 54.2086 168.728 55.361 169.359 56.0692C169.99 56.7774 171.117 57.1315 172.739 57.1315C173.821 57.1315 174.915 57.0027 176.023 56.7452L176.023 64.0074C173.885 64.5997 171.825 64.8958 169.842 64.8958C162.631 64.8958 159.026 60.9171 159.026 52.9596L159.026 29.2804L152.15 29.2804L152.15 22.3272L159.026 22.3272L159.026 12.168L168.413 12.168L168.413 12.168ZM200.127 64.8958C194.178 64.8958 189.356 63.0223 185.66 59.2754C181.965 55.5284 180.117 50.5389 180.117 44.3068L180.117 43.148C180.117 38.9761 180.922 35.2485 182.532 31.965C184.141 28.6816 186.401 26.1257 189.311 24.2973C192.221 22.4689 195.466 21.5547 199.045 21.5547C204.736 21.5547 209.134 23.3702 212.237 27.0013C215.34 30.6324 216.892 35.77 216.892 42.414L216.892 46.1996L189.581 46.1996C189.865 49.6504 191.017 52.3802 193.038 54.3889C195.06 56.3975 197.603 57.4019 200.668 57.4019C204.968 57.4019 208.471 55.6636 211.175 52.187L216.235 57.0156C214.561 59.5136 212.327 61.4514 209.533 62.8292C206.739 64.2069 203.603 64.8958 200.127 64.8958L200.127 64.8958ZM247.91 64.1232C247.498 63.3249 247.138 62.0244 246.829 60.2218C243.841 63.3378 240.185 64.8958 235.858 64.8958C231.661 64.8958 228.235 63.6983 225.583 61.3034C222.93 58.9084 221.604 55.9469 221.604 52.4188C221.604 47.9637 223.259 44.545 226.568 42.163C229.877 39.7809 234.609 38.5898 240.764 38.5898L246.52 38.5898L246.52 35.8472C246.52 33.684 245.914 31.9522 244.704 30.6517C243.494 29.3512 241.652 28.7009 239.18 28.7009C237.043 28.7009 235.292 29.2353 233.927 30.304C232.562 31.3727 231.879 32.7312 231.879 34.3793L222.493 34.3793C222.493 32.0874 223.252 29.9435 224.772 27.9477C226.291 25.9519 228.358 24.3874 230.972 23.2543C233.585 22.1212 236.502 21.5547 239.721 21.5547C244.614 21.5547 248.515 22.7844 251.425 25.2437C254.335 27.703 255.829 31.1603 255.906 35.6154L255.906 54.4661C255.906 58.226 256.434 61.2261 257.49 63.4666L257.49 64.1232L247.91 64.1232L247.91 64.1232ZM322.54 50.6805L331.039 22.3272L341.043 22.3272L324.433 70.4583C321.884 77.4887 317.557 81.0039 311.454 81.0039C310.089 81.0039 308.583 80.7709 306.935 80.3049L306.935 73.0078L308.711 73.1237C311.081 73.1237 312.864 72.6926 314.061 71.8305C315.259 70.9684 316.205 69.521 316.901 67.4881L318.253 63.8987L303.574 22.3272L313.694 22.3272L322.54 50.6805L322.54 50.6805ZM199.007 29.0872C196.431 29.0872 194.352 29.9886 192.768 31.7912C191.184 33.5939 190.174 36.1047 189.736 39.3238L207.621 39.3238L207.621 38.6285C207.415 35.4867 206.578 33.111 205.11 31.5015C203.642 29.892 201.608 29.0872 199.007 29.0872L199.007 29.0872ZM272.13 43.7274C272.13 47.9765 272.948 51.2922 274.583 53.6742C276.218 56.0563 278.543 57.2474 281.556 57.2474C285.393 57.2474 288.2 55.5348 289.977 52.1098L289.977 34.2634C288.251 30.9156 285.47 29.2417 281.633 29.2417C278.594 29.2417 276.251 30.4457 274.602 32.8535C272.954 35.2613 272.13 38.886 272.13 43.7274L272.13 43.7274ZM237.596 57.3633C239.451 57.3633 241.195 56.9126 242.831 56.0113C244.466 55.1099 245.696 53.8996 246.52 52.3802L246.52 44.5L241.459 44.5C237.983 44.5 235.369 45.1052 233.618 46.3155C231.867 47.5259 230.991 49.2384 230.991 51.4531C230.991 53.2558 231.59 54.6915 232.787 55.7602C233.985 56.8289 235.588 57.3633 237.596 57.3633L237.596 57.3633Z" id="Vector" fill="#FFFFFF" fill-rule="evenodd" stroke="none" />
    <path d="M397.364 45.0794C397.183 48.9938 396.128 52.451 394.196 55.4512C392.265 58.4513 389.554 60.7754 386.065 62.4236C382.575 64.0717 378.59 64.8958 374.109 64.8958C366.719 64.8958 360.898 62.488 356.649 57.6723C352.4 52.8566 350.276 46.058 350.276 37.2765L350.276 34.4952C350.276 28.9842 351.235 24.1621 353.153 20.0289C355.072 15.8956 357.834 12.7023 361.439 10.449C365.045 8.19567 369.216 7.06901 373.955 7.06901C380.779 7.06901 386.264 8.86523 390.411 12.4577C394.557 16.0501 396.913 21.001 397.48 27.3103L383.96 27.3103C383.857 23.8853 382.994 21.4259 381.372 19.9323C379.749 18.4387 377.277 17.6918 373.955 17.6918C370.581 17.6918 368.109 18.9537 366.538 21.4774C364.967 24.0012 364.143 28.0314 364.066 33.5681L364.066 37.5469C364.066 43.5471 364.819 47.8349 366.326 50.4101C367.832 52.9854 370.427 54.273 374.109 54.273C377.225 54.273 379.607 53.539 381.256 52.0712C382.904 50.6033 383.779 48.2727 383.882 45.0794L397.364 45.0794L397.364 45.0794ZM500.146 49.174C500.146 47.1911 499.445 45.646 498.041 44.5386C496.638 43.4313 494.172 42.2853 490.644 41.1007C487.116 39.9161 484.231 38.7701 481.991 37.6627C474.703 34.0832 471.059 29.1645 471.059 22.9067C471.059 19.7906 471.967 17.0416 473.782 14.6595C475.598 12.2774 478.167 10.4232 481.489 9.097C484.811 7.77076 488.545 7.10764 492.691 7.10764C496.734 7.10764 500.359 7.8287 503.565 9.27083C506.771 10.713 509.263 12.7667 511.04 15.4321C512.816 18.0974 513.705 21.1426 513.705 24.5677L500.185 24.5677C500.185 22.2757 499.483 20.4988 498.08 19.237C496.676 17.9751 494.777 17.3442 492.382 17.3442C489.961 17.3442 488.049 17.8785 486.646 18.9473C485.242 20.016 484.54 21.3744 484.54 23.0226C484.54 24.4647 485.313 25.7716 486.858 26.9433C488.403 28.1151 491.12 29.3254 495.009 30.5744C498.897 31.8234 502.091 33.169 504.589 34.6111C510.666 38.1134 513.705 42.942 513.705 49.0968C513.705 54.0155 511.851 57.8783 508.142 60.6853C504.434 63.4923 499.348 64.8958 492.884 64.8958C488.326 64.8958 484.199 64.0782 480.504 62.4429C476.808 60.8076 474.027 58.5672 472.16 55.7215C470.293 52.8759 469.359 49.5989 469.359 45.8906L482.957 45.8906C482.957 48.9036 483.736 51.1248 485.294 52.554C486.852 53.9833 489.382 54.6979 492.884 54.6979C495.125 54.6979 496.895 54.215 498.196 53.2493C499.496 52.2836 500.146 50.9252 500.146 49.174L500.146 49.174ZM420.595 7.88021L433.149 47.0108L445.665 7.88021L463.511 7.88021L463.511 64.1232L449.914 64.1232L449.914 50.9896L451.227 24.1042L437.63 64.1232L428.668 64.1232L415.032 24.0655L416.346 50.9896L416.346 64.1232L402.787 64.1232L402.787 7.88021L420.595 7.88021L420.595 7.88021Z" id="Vector" fill="#29C2E1" fill-rule="evenodd" stroke="none" />
  </g>
</svg>